<svg xmlns="http://www.w3.org/2000/svg" viewBox="0 0 33.98 33.98"><defs><style>.cls-1{fill:#8d8d8e;}</style></defs><title>instagramh</title><g id="Capa_2" data-name="Capa 2"><g id="Illustrations"><g id="instagram"><path id="Path_17" data-name="Path 17" class="cls-1" d="M25.42,0H8.56A8.57,8.57,0,0,0,0,8.56V25.42A8.58,8.58,0,0,0,8.56,34H25.42A8.58,8.58,0,0,0,34,25.42V8.56A8.58,8.58,0,0,0,25.42,0Zm-8.3,26.49a9.44,9.44,0,1,1,9.44-9.44h0A9.46,9.46,0,0,1,17.12,26.49ZM25.23,6.8A2.21,2.21,0,1,1,27.43,9h0a2.2,2.2,0,0,1-2.2-2.18Z"/><path id="Path_18" data-name="Path 18" class="cls-1" d="M17,11.89a5,5,0,1,0,5,5A5,5,0,0,0,17,11.89Z"/></g></g></g></svg>