<svg xmlns="http://www.w3.org/2000/svg" viewBox="0 0 210.94 19.66"><defs><style>.cls-1{fill:#ddd;}</style></defs><title>logoh</title><g id="Capa_2" data-name="Capa 2"><g id="Illustrations"><path class="cls-1" d="M1.5,19.66H0L5.52,0H7Z"/><path class="cls-1" d="M9.42,19.66H7.92L13.43,0h1.48Z"/><path class="cls-1" d="M26,.49h6.52c4.2,0,6.78,3.7,6.78,9.08,0,4.18-1.57,9.59-6.87,9.59H26ZM28.12,17h4.22C35.17,17,37,14.43,37,9.72s-1.87-7.07-4.83-7.07H28.12Z"/><path class="cls-1" d="M42.83,9.7c.09-3.25,2-4.53,4.85-4.53.94,0,4.35.32,4.35,3.8V16.8c0,.57.25.8.65.8a3.33,3.33,0,0,0,.65-.1v1.66a3.12,3.12,0,0,1-1.08.26c-1.75,0-2-1-2.08-2.08a5.09,5.09,0,0,1-4.24,2.21,3.63,3.63,0,0,1-3.68-3.92,3.94,3.94,0,0,1,3.57-4.27l3.25-.47c.47-.05,1-.26,1-1.61s-.9-2.21-2.76-2.21c-2.24,0-2.56,1.59-2.69,2.63Zm7.23,2.52c-.32.29-.81.49-3.26.86-1,.15-2.51.49-2.51,2.21,0,1.48.65,2.36,2.13,2.36a3.51,3.51,0,0,0,3.64-3.19Z"/><path class="cls-1" d="M66.61,19.16h-2V10.79c0-2.37-.58-3.56-2.51-3.56C61,7.23,59,8.06,59,11.75v7.41h-2V5.56h1.86V7.49H59A4.2,4.2,0,0,1,62.5,5.17c1.82,0,4.11.86,4.11,4.74Z"/><path class="cls-1" d="M71.25,3.09V.49h2v2.6Zm2,16.07h-2V5.56h2Z"/><path class="cls-1" d="M87.82,14.9a6.1,6.1,0,0,1-2.08,3.72,4.62,4.62,0,0,1-3.19.93c-3.3,0-5.25-2.88-5.25-6.81,0-4.21,1.75-7.57,5.63-7.57,3.39,0,5,3.12,5,7.93H79.41c0,2.84,1.14,4.48,3.41,4.48a3.14,3.14,0,0,0,3-2.68Zm-1.88-3.62c-.12-2.1-.88-4-3.28-4-1.81,0-3.25,1.95-3.25,4Z"/><path class="cls-1" d="M94,19.16h-2V.49h2Z"/><path class="cls-1" d="M112.85,6.6c-.27-1.11-.78-3.22-3.56-3.22-1.62,0-4,1.25-4,6.53,0,3.35,1.15,6.37,4,6.37,1.86,0,3.16-1.23,3.56-3.51h3.37c-.67,4.05-3,6.89-7,6.89-4.28,0-7.36-3.36-7.36-9.81S105.12,0,109.27,0a6.82,6.82,0,0,1,7,6.6Z"/><path class="cls-1" d="M129.87,16.46c0,1.64.32,2,.7,2.16v.54h-3.39a7,7,0,0,1-.29-1.63,4.66,4.66,0,0,1-3.86,2c-1.79,0-3.63-1.17-3.63-4s1.48-4.09,3.48-4.42l2.82-.5c.5-.08,1.1-.31,1.1-1.09,0-1.53-1.25-1.61-2.06-1.61-1.57,0-1.84,1.12-1.93,1.92h-3c.36-4.24,2.89-4.83,5.34-4.83,1.68,0,4.75.59,4.75,4Zm-3.07-4a4.19,4.19,0,0,1-2.13.75c-1.17.24-2.13.57-2.13,2.08A1.47,1.47,0,0,0,124,16.93a2.74,2.74,0,0,0,2.8-2.73Z"/><path class="cls-1" d="M151.43,19.16h-3.14v-8.4c0-2-.79-2.73-1.71-2.73-1.57,0-2.13,1.2-2.13,2.84v8.29h-3.14V10.84c0-1.17,0-2.81-1.88-2.81-1.48,0-2,1.2-2,2.71v8.42h-3.14V5.33h3v2h0A3.56,3.56,0,0,1,140.77,5c1.73,0,2.52.72,3.32,2.21A3.74,3.74,0,0,1,147.28,5c2.33,0,4.15,1.58,4.15,4.62Z"/><path class="cls-1" d="M165.64,16.46c0,1.64.32,2,.7,2.16v.54H163a7,7,0,0,1-.29-1.63,4.66,4.66,0,0,1-3.86,2c-1.79,0-3.63-1.17-3.63-4s1.48-4.09,3.48-4.42l2.82-.5c.49-.08,1.1-.31,1.1-1.09,0-1.53-1.26-1.61-2.06-1.61-1.57,0-1.84,1.12-1.93,1.92h-3c.36-4.24,2.89-4.83,5.34-4.83,1.68,0,4.75.59,4.75,4Zm-3.07-4a4.19,4.19,0,0,1-2.13.75c-1.17.24-2.13.57-2.13,2.08a1.47,1.47,0,0,0,1.46,1.67,2.74,2.74,0,0,0,2.8-2.73Z"/><path class="cls-1" d="M180.4,14.12c-.11,1.43-1.08,5.41-5.45,5.41s-5.52-4-5.52-6.89c0-4.48,1.68-7.67,5.72-7.67,1.89,0,5,1,5.27,5.3h-3.18c-.14-.88-.59-2.24-1.93-2.24h-.16c-2,0-2.49,2.29-2.49,4,0,1.51.05,4.5,2.42,4.5,1.6,0,2.13-1.77,2.13-2.42Z"/><path class="cls-1" d="M194.84,19.16H191.7v-8.4c0-1,0-2.73-2-2.73-1.39,0-2.47,1.1-2.47,3.2v7.93h-3.14V.49h3.14V7.12h.05A3.62,3.62,0,0,1,190.69,5c2.34,0,4.15,1.58,4.15,4.62Z"/><path class="cls-1" d="M204.84,19.53c-3.2,0-6.1-2.29-6.1-7.28S201.64,5,204.84,5s6.1,2.28,6.1,7.28S208.05,19.53,204.84,19.53Zm0-11.5c-2.42,0-2.87,2.45-2.87,4.22s.45,4.21,2.87,4.21,2.87-2.45,2.87-4.21S207.27,8,204.84,8Z"/></g></g></svg>