<svg xmlns="http://www.w3.org/2000/svg" viewBox="0 0 25.87 25.91"><defs><style>.cls-1{fill:none;stroke:#b4b4b5;stroke-linecap:round;stroke-linejoin:round;stroke-width:2px;}</style></defs><title>phoneh</title><g id="Capa_2" data-name="Capa 2"><g id="Illustrations"><path class="cls-1" d="M24.87,18.9v3.6a2.4,2.4,0,0,1-2.39,2.41h-.23a23.78,23.78,0,0,1-10.36-3.68A23.44,23.44,0,0,1,4.69,14,23.77,23.77,0,0,1,1,3.62,2.4,2.4,0,0,1,3.18,1H7A2.41,2.41,0,0,1,9.4,3.06a15.07,15.07,0,0,0,.84,3.38A2.4,2.4,0,0,1,9.7,9L8.17,10.49a19.21,19.21,0,0,0,7.2,7.2l1.53-1.52a2.39,2.39,0,0,1,2.53-.54,15.69,15.69,0,0,0,3.37.84A2.4,2.4,0,0,1,24.87,18.9Z"/></g></g></svg>