<svg xmlns="http://www.w3.org/2000/svg" viewBox="0 0 128.34 148.31"><defs><style>.cls-1,.cls-2{fill:none;stroke:#1050ff;stroke-width:4px;}.cls-1{stroke-linecap:round;stroke-linejoin:round;}.cls-2{stroke-miterlimit:10;}.cls-3{fill:#f5f7f7;}</style></defs><title>uxh</title><g id="Capa_2" data-name="Capa 2"><g id="Capa_1-2" data-name="Capa 1"><path class="cls-1" d="M50.84,77.11l18.09,9a4.51,4.51,0,0,1,2.51,4v21.54a4.51,4.51,0,0,1-2.51,4l-18.09,9a4.55,4.55,0,0,1-4,0l-18.09-9a4.51,4.51,0,0,1-2.49-4.07V90.21a4.51,4.51,0,0,1,2.51-4l18.09-9A4.51,4.51,0,0,1,50.84,77.11Z"/><polyline class="cls-1" points="26.94 87.76 48.83 98.71 70.72 87.76"/><line class="cls-1" x1="48.83" y1="125.3" x2="48.83" y2="98.71"/><line class="cls-1" x1="37.53" y1="81.75" x2="60.14" y2="93.05"/><circle class="cls-2" cx="46.89" cy="101.42" r="44.89"/><circle class="cls-3" cx="80.3" cy="48.04" r="48.04"/><path class="cls-1" d="M102.15,70.41V65A10.88,10.88,0,0,0,91.27,54.1H69.51A10.88,10.88,0,0,0,58.63,65v5.44"/><circle class="cls-1" cx="80.39" cy="32.34" r="10.88"/></g></g></svg>