<?xml version="1.0" encoding="utf-8"?>
<!-- Generator: Adobe Illustrator 22.1.0, SVG Export Plug-In . SVG Version: 6.00 Build 0)  -->
<svg version="1.1" id="Capa_1" xmlns="http://www.w3.org/2000/svg" xmlns:xlink="http://www.w3.org/1999/xlink" x="0px" y="0px"
	 viewBox="0 0 151 151" style="enable-background:new 0 0 151 151;" xml:space="preserve">
<style type="text/css">
	.st0{clip-path:url(#SVGID_2_);fill:none;stroke:#F9F9F9;stroke-width:4;stroke-miterlimit:10;}
	.st1{clip-path:url(#SVGID_4_);fill:#F5F7F7;}
	.st2{clip-path:url(#SVGID_6_);fill:#FF5252;}
	.st3{clip-path:url(#SVGID_8_);fill:#FF5252;}
	.st4{clip-path:url(#SVGID_10_);fill:#FF5252;}
	.st5{clip-path:url(#SVGID_12_);fill:#FF5252;}
	.st6{clip-path:url(#SVGID_14_);fill:#FF5252;}
	.st7{fill:none;stroke:#1050FF;stroke-miterlimit:10;stroke-opacity:0;}
</style>
<title>ui</title>
<g id="Capa_2_1_">
	<g id="Capa_1-2">
		<g>
			<g>
				<defs>
					<rect id="SVGID_1_" x="0.5" y="0.5" width="150" height="150"/>
				</defs>
				<clipPath id="SVGID_2_">
					<use xlink:href="#SVGID_1_"  style="overflow:visible;"/>
				</clipPath>
				<path class="st0" d="M30.9,24.6h64.8c1.4,0,2.5,1.1,2.5,2.5v118.8c0,1.4-1.1,2.5-2.5,2.5H30.9c-1.4,0-2.5-1.1-2.5-2.5V27.1
					C28.5,25.7,29.6,24.6,30.9,24.6z"/>
			</g>
			<g>
				<defs>
					<rect id="SVGID_3_" x="0.5" y="0.5" width="150" height="150"/>
				</defs>
				<clipPath id="SVGID_4_">
					<use xlink:href="#SVGID_3_"  style="overflow:visible;"/>
				</clipPath>
				<path class="st1" d="M58.1,2.7h58.2c2.1,0,3.8,1.7,3.8,3.8v108c0,2.1-1.7,3.8-3.8,3.8H58.1c-2.1,0-3.8-1.7-3.8-3.8V6.4
					C54.3,4.3,56,2.7,58.1,2.7z"/>
			</g>
			<g>
				<defs>
					<rect id="SVGID_5_" x="0.5" y="0.5" width="150" height="150"/>
				</defs>
				<clipPath id="SVGID_6_">
					<use xlink:href="#SVGID_5_"  style="overflow:visible;"/>
				</clipPath>
				<path class="st2" d="M70.4,101.4v-34c0-2.3,1.8-4.1,4.1-4.1l0,0c2.3,0,4.1,1.8,4.1,4.1v34c0,2.3-1.8,4.1-4.1,4.1l0,0
					C72.2,105.5,70.4,103.7,70.4,101.4z"/>
			</g>
			<g>
				<defs>
					<rect id="SVGID_7_" x="0.5" y="0.5" width="150" height="150"/>
				</defs>
				<clipPath id="SVGID_8_">
					<use xlink:href="#SVGID_7_"  style="overflow:visible;"/>
				</clipPath>
				<path class="st3" d="M84.1,101.3V79.1c0-2.4,1.9-4.3,4.3-4.3l0,0c2.4,0,4.3,1.9,4.3,4.3v22.2c0,2.4-1.9,4.3-4.3,4.3l0,0
					C86,105.5,84.1,103.6,84.1,101.3z"/>
			</g>
			<g>
				<defs>
					<rect id="SVGID_9_" x="0.5" y="0.5" width="150" height="150"/>
				</defs>
				<clipPath id="SVGID_10_">
					<use xlink:href="#SVGID_9_"  style="overflow:visible;"/>
				</clipPath>
				<path class="st4" d="M98.6,101.3V88.6c0-2.3,1.9-4.2,4.2-4.2h0.1c2.3,0,4.2,1.9,4.2,4.2v12.7c0,2.3-1.9,4.2-4.2,4.2h-0.1
					C100.5,105.5,98.6,103.6,98.6,101.3z"/>
			</g>
			<g>
				<defs>
					<rect id="SVGID_11_" x="0.5" y="0.5" width="150" height="150"/>
				</defs>
				<clipPath id="SVGID_12_">
					<use xlink:href="#SVGID_11_"  style="overflow:visible;"/>
				</clipPath>
				<ellipse class="st5" cx="88.3" cy="33.8" rx="14.9" ry="15.5"/>
			</g>
			<g>
				<defs>
					<rect id="SVGID_13_" x="0.5" y="0.5" width="150" height="150"/>
				</defs>
				<clipPath id="SVGID_14_">
					<use xlink:href="#SVGID_13_"  style="overflow:visible;"/>
				</clipPath>
				<circle class="st6" cx="62.6" cy="135.2" r="4.5"/>
			</g>
		</g>
		<rect x="0.5" y="0.5" class="st7" width="150" height="150"/>
	</g>
</g>
</svg>
