<svg xmlns="http://www.w3.org/2000/svg" xmlns:xlink="http://www.w3.org/1999/xlink" viewBox="0 0 151 151"><defs><style>.cls-1,.cls-3,.cls-4{fill:none;}.cls-1{stroke:#000;opacity:0;}.cls-1,.cls-4{stroke-miterlimit:10;}.cls-2{clip-path:url(#clip-path);}.cls-3,.cls-4,.cls-6{stroke:#1050ff;stroke-width:4px;}.cls-3,.cls-6{stroke-linecap:round;stroke-linejoin:round;}.cls-5{fill:#f5f7f7;}.cls-6{fill:#1050ff;}</style><clipPath id="clip-path"><rect class="cls-1" x="0.5" y="0.5" width="150" height="150"/></clipPath></defs><title>ux</title><g id="Capa_2" data-name="Capa 2"><g id="Capa_1-2" data-name="Capa 1"><g class="cls-2"><path class="cls-3" d="M65.18,78.46l18.08,9a4.52,4.52,0,0,1,2.51,4V113.1a4.52,4.52,0,0,1-2.51,4.05l-18.08,9a4.51,4.51,0,0,1-4.05,0l-18.09-9a4.53,4.53,0,0,1-2.49-4.07V91.55a4.52,4.52,0,0,1,2.51-4l18.09-9A4.53,4.53,0,0,1,65.18,78.46Z"/><polyline class="cls-3" points="41.27 89.11 63.16 100.05 85.05 89.11"/><line class="cls-3" x1="63.16" y1="126.64" x2="63.16" y2="100.05"/><line class="cls-3" x1="51.86" y1="83.09" x2="74.47" y2="94.4"/><circle class="cls-4" cx="62.57" cy="104.41" r="44.24"/><circle class="cls-5" cx="92.49" cy="48.25" r="46.59"/><path class="cls-6" d="M74.14,69.31V64.42a9.79,9.79,0,0,1,9.79-9.8h19.58a9.79,9.79,0,0,1,9.79,9.8v4.89Z"/><circle class="cls-6" cx="93.72" cy="35.04" r="9.79"/></g><rect class="cls-1" x="0.5" y="0.5" width="150" height="150"/></g></g></svg>